# xmcd
#
# Track frame offsets: 
#        150
#        12419
#        24192
#        35464
#        48224
#        61112
#        74137
#        86698
#        98579
#        110008
#        122132
#        134613
#        146552
#        158282
#        169222
#        182714
#        192312
#        202794
#        213721
#        224821
#        237781
#        249719
#        261438
#        273140
#        284955
#        296573
#        307655
#        316137
#        326579
#
# Disc length: 4486 seconds
#
# Revision: 0
# Processed by: cddbd v1.5.2PL0 Copyright (c) Steve Scherf et al.
# Submitted via: ExactAudioCopyFreeDBPlugin 1.0
#
DISCID=b711841d
DTITLE=Bobby Blue Bland - Further On Up The Road: The Duke Recordings 
DTITLE=1955-1962 [CD1]
DYEAR=2015
DGENRE=Blues
TTITLE0=It's My Life Baby
TTITLE1=Lost Lovers Blues
TTITLE2=Honey Bee
TTITLE3=Time Out
TTITLE4=A Million Miles From Nowhere
TTITLE5=You Or None
TTITLE6=I Woke Up Screaming
TTITLE7=I Can't Put You Down Baby
TTITLE8=You've Got Bad Intentions
TTITLE9=I Don't Believe
TTITLE10=I Learned My Lesson
TTITLE11=Don't Want No Woman
TTITLE12=I Smell Trouble
TTITLE13=Sometime Tomorrow
TTITLE14=Farther Up The Road
TTITLE15=Teach Me (How To Love You)
TTITLE16=Bobby's Blues
TTITLE17=Loan Me A Helping Hand
TTITLE18=You Got Me (Where You Want Me)
TTITLE19=Last Night
TTITLE20=Little Boy Blue
TTITLE21=You Did Me Wrong
TTITLE22=I Lost Sight Of The World
TTITLE23=I'm Not Ashamed
TTITLE24=Wishing Well
TTITLE25=Is It Real
TTITLE26=That's Why
TTITLE27=Hold Me Tenderly
TTITLE28=Someday
EXTD=
EXTT0=
EXTT1=
EXTT2=
EXTT3=
EXTT4=
EXTT5=
EXTT6=
EXTT7=
EXTT8=
EXTT9=
EXTT10=
EXTT11=
EXTT12=
EXTT13=
EXTT14=
EXTT15=
EXTT16=
EXTT17=
EXTT18=
EXTT19=
EXTT20=
EXTT21=
EXTT22=
EXTT23=
EXTT24=
EXTT25=
EXTT26=
EXTT27=
EXTT28=
PLAYORDER=
